<?xml version="1.0" encoding="utf-8"?>
<svg version="1.1" xmlns:xlink="http://www.w3.org/1999/xlink" width="18px" height="14px" xmlns="http://www.w3.org/2000/svg">
  <g transform="matrix(1 0 0 1 -70 -255 )">
    <path d="M 5.475 2.84375  C 5.825 3.18402777777778  6 3.59722222222222  6 4.08333333333333  C 6 4.56944444444444  5.825 4.98263888888889  5.475 5.32291666666667  C 5.125 5.66319444444445  4.7 5.83333333333333  4.2 5.83333333333333  C 3.7 5.83333333333333  3.275 5.66319444444445  2.925 5.32291666666667  C 2.575 4.98263888888889  2.4 4.56944444444444  2.4 4.08333333333333  C 2.4 3.59722222222222  2.575 3.18402777777778  2.925 2.84375  C 3.275 2.50347222222222  3.7 2.33333333333333  4.2 2.33333333333333  C 4.7 2.33333333333333  5.125 2.50347222222222  5.475 2.84375  Z M 11.7 3.79166666666667  L 15.6 7.58333333333333  L 15.6 11.6666666666667  L 2.4 11.6666666666667  L 2.4 9.91666666666667  L 5.4 7  L 6.9 8.45833333333333  L 11.7 3.79166666666667  Z M 16.7109375 1.25325520833333  C 16.6515625 1.19552951388889  16.58125 1.16666666666667  16.5 1.16666666666667  L 1.5 1.16666666666667  C 1.41875 1.16666666666667  1.3484375 1.19552951388889  1.2890625 1.25325520833333  C 1.2296875 1.31098090277778  1.2 1.37934027777778  1.2 1.45833333333333  L 1.2 12.5416666666667  C 1.2 12.6206597222222  1.2296875 12.6890190972222  1.2890625 12.7467447916667  C 1.3484375 12.8044704861111  1.41875 12.8333333333333  1.5 12.8333333333333  L 16.5 12.8333333333333  C 16.58125 12.8333333333333  16.6515625 12.8044704861111  16.7109375 12.7467447916667  C 16.7703125 12.6890190972222  16.8 12.6206597222222  16.8 12.5416666666667  L 16.8 1.45833333333333  C 16.8 1.37934027777778  16.7703125 1.31098090277778  16.7109375 1.25325520833333  Z M 17.559375 0.428385416666667  C 17.853125 0.713975694444444  18 1.05729166666667  18 1.45833333333333  L 18 12.5416666666667  C 18 12.9427083333333  17.853125 13.2860243055556  17.559375 13.5716145833333  C 17.265625 13.8572048611111  16.9125 14  16.5 14  L 1.5 14  C 1.0875 14  0.734375 13.8572048611111  0.440625 13.5716145833333  C 0.146875 13.2860243055556  0 12.9427083333333  0 12.5416666666667  L 0 1.45833333333333  C 0 1.05729166666667  0.146875 0.713975694444444  0.440625 0.428385416666667  C 0.734375 0.142795138888888  1.0875 0  1.5 0  L 16.5 0  C 16.9125 0  17.265625 0.142795138888888  17.559375 0.428385416666667  Z " fill-rule="nonzero" fill="#7f7f7f" stroke="none" transform="matrix(1 0 0 1 70 255 )" />
  </g>
</svg>