<?xml version="1.0" encoding="utf-8"?>
<svg version="1.1" xmlns:xlink="http://www.w3.org/1999/xlink" width="14px" height="14px" xmlns="http://www.w3.org/2000/svg">
  <g transform="matrix(1 0 0 1 -189 -255 )">
    <path d="M 3.79339933993399 3.79339933993399  C 4.02442244224422 3.56237623762376  4.13993399339934 3.28360836083608  4.13993399339934 2.95709570957096  C 4.13993399339934 2.63058305830583  4.02442244224422 2.35181518151815  3.79339933993399 2.12079207920792  C 3.56237623762376 1.88976897689769  3.28360836083608 1.77425742574257  2.95709570957096 1.77425742574257  C 2.63058305830583 1.77425742574257  2.35181518151815 1.88976897689769  2.12079207920792 2.12079207920792  C 1.88976897689769 2.35181518151815  1.77425742574257 2.63058305830583  1.77425742574257 2.95709570957096  C 1.77425742574257 3.28360836083608  1.88976897689769 3.56237623762376  2.12079207920792 3.79339933993399  C 2.35181518151815 4.02442244224422  2.63058305830583 4.13993399339934  2.95709570957096 4.13993399339934  C 3.28360836083608 4.13993399339934  3.56237623762376 4.02442244224422  3.79339933993399 3.79339933993399  Z M 13.6580858085809 7.43894389438944  C 13.8860286028603 7.67920792079208  14 7.95951595159516  14 8.27986798679868  C 14 8.6063806380638  13.8860286028603 8.88360836083608  13.6580858085809 9.11155115511551  L 9.12079207920792 13.6580858085809  C 8.88052805280528 13.8860286028603  8.6002200220022 14  8.27986798679868 14  C 7.95335533553355 14  7.67612761276128 13.8860286028603  7.44818481848185 13.6580858085809  L 0.840924092409241 7.04158415841584  C 0.606820682068207 6.81364136413641  0.408140814081408 6.5025302530253  0.244884488448845 6.10825082508251  C 0.0816281628162816 5.71397139713971  0 5.35357535753575  0 5.02706270627063  L 0 1.18283828382838  C 0 0.862486248624863  0.117051705170517 0.585258525852585  0.351155115511551 0.35115511551155  C 0.585258525852585 0.117051705170516  0.862486248624863 0  1.18283828382838 0  L 5.02706270627063 0  C 5.35357535753575 0  5.71397139713971 0.0816281628162805  6.10825082508251 0.244884488448845  C 6.5025302530253 0.408140814081407  6.81672167216722 0.606820682068205  7.05082508250825 0.840924092409241  L 13.6580858085809 7.43894389438944  Z " fill-rule="nonzero" fill="#7f7f7f" stroke="none" transform="matrix(1 0 0 1 189 255 )" />
  </g>
</svg>