<?xml version="1.0" encoding="UTF-8"?>
<svg id="Layer_1" data-name="Layer 1" xmlns="http://www.w3.org/2000/svg" viewBox="0 0 167.13 20.91">
  <defs>
    <style>
      .cls-1 {
        fill: #ddd;
      }

      .cls-2 {
        fill: #8dc14b;
      }

      .cls-3 {
        fill: #f68825;
      }

      .cls-4 {
        fill: #80ab40;
      }

      .cls-5 {
        fill: none;
      }

      .cls-6 {
        fill: #b8d437;
      }
    </style>
  </defs>
  <g>
    <path class="cls-3" d="m22.93,17.03l5.09-12.65h2l5.08,12.65h-2.61l-3.92-10.39h.9l-3.98,10.39h-2.56Zm2.7-2.36v-2.05h6.8v2.05h-6.8Z"/>
    <path class="cls-3" d="m36.6,17.03V4.38h2.45v12.65h-2.45Z"/>
  </g>
  <g>
    <path class="cls-1" d="m45.34,17.03V4.38h2.45v12.65h-2.45Z"/>
    <path class="cls-1" d="m50.13,17.03v-8.69h2.36v8.69h-2.36Zm5.67,0v-5.13c0-.5-.16-.9-.48-1.18-.32-.28-.71-.42-1.18-.42-.31,0-.59.06-.85.19s-.45.31-.59.55c-.14.24-.22.53-.22.86l-.92-.45c0-.67.15-1.25.44-1.75.29-.49.69-.87,1.2-1.14.5-.27,1.07-.4,1.71-.4.6,0,1.15.14,1.64.4.49.27.88.65,1.17,1.13s.43,1.07.43,1.75v5.58h-2.36Zm5.67,0v-5.13c0-.5-.16-.9-.48-1.18-.32-.28-.71-.42-1.18-.42-.3,0-.58.06-.84.19-.26.13-.46.31-.6.55-.14.24-.22.53-.22.86l-1.35-.32c.05-.7.23-1.3.56-1.81.32-.51.75-.91,1.28-1.19.53-.28,1.12-.42,1.76-.42s1.23.14,1.75.4c.52.27.92.66,1.22,1.16s.45,1.1.45,1.8v5.51h-2.36Z"/>
    <path class="cls-1" d="m69.37,17.21c-.79,0-1.51-.2-2.14-.59-.64-.4-1.13-.94-1.49-1.62-.36-.68-.54-1.45-.54-2.3s.18-1.64.54-2.32c.36-.68.86-1.22,1.49-1.62.64-.4,1.35-.59,2.14-.59.62,0,1.18.13,1.67.38s.88.6,1.18,1.05c.29.45.45.96.48,1.52v3.13c-.02.58-.18,1.09-.48,1.53-.29.44-.69.79-1.18,1.05s-1.05.39-1.67.39Zm.43-2.18c.66,0,1.19-.22,1.6-.66.41-.44.61-1,.61-1.7,0-.46-.09-.86-.28-1.21-.19-.35-.44-.63-.77-.83-.33-.2-.72-.3-1.16-.3s-.81.1-1.14.3c-.33.2-.59.47-.77.83-.19.35-.28.76-.28,1.21s.09.88.28,1.23c.19.35.44.63.77.83.33.2.71.3,1.14.3Zm2.09,2v-2.34l.38-2.12-.38-2.09v-2.14h2.34v8.69h-2.34Z"/>
    <path class="cls-1" d="m79.85,16.79c-.78,0-1.48-.19-2.11-.57-.62-.38-1.11-.9-1.47-1.56-.35-.66-.53-1.4-.53-2.21s.18-1.55.53-2.2c.35-.65.84-1.16,1.47-1.54s1.33-.57,2.11-.57c.65,0,1.22.13,1.72.38.5.25.89.6,1.18,1.04s.44.95.47,1.54v2.74c-.02.58-.18,1.09-.48,1.54-.29.45-.69.8-1.19,1.04s-1.06.37-1.7.37Zm.11,4.09c-.92,0-1.74-.17-2.45-.49-.71-.33-1.27-.8-1.69-1.4l1.49-1.49c.33.4.71.7,1.12.91s.91.32,1.5.32c.73,0,1.31-.19,1.74-.56s.64-.89.64-1.55v-2.18l.4-1.91-.38-1.91v-2.29h2.34v8.24c0,.86-.2,1.62-.6,2.26-.4.64-.96,1.14-1.67,1.5-.71.36-1.52.54-2.45.54Zm.36-6.23c.43,0,.81-.09,1.12-.28.32-.19.57-.44.75-.77.18-.33.27-.7.27-1.12s-.09-.81-.27-1.13c-.18-.32-.43-.58-.75-.77-.32-.19-.69-.28-1.12-.28s-.81.09-1.13.28c-.32.19-.58.44-.76.77-.18.33-.27.71-.27,1.12s.09.78.27,1.11c.18.33.43.59.76.78.32.19.7.29,1.13.29Z"/>
    <path class="cls-1" d="m90.9,17.21c-.91,0-1.72-.19-2.43-.58-.71-.39-1.27-.93-1.68-1.61s-.62-1.46-.62-2.34.2-1.63.6-2.31c.4-.68.95-1.22,1.65-1.62.7-.4,1.47-.6,2.32-.6s1.58.19,2.22.57c.64.38,1.15.89,1.51,1.55s.55,1.4.55,2.22c0,.16,0,.32-.03.48-.02.16-.05.35-.1.55l-7.31.02v-1.76l6.21-.02-.95.74c-.02-.52-.12-.95-.28-1.3-.16-.35-.4-.61-.7-.8-.31-.19-.68-.28-1.12-.28-.47,0-.88.11-1.22.31-.35.21-.62.5-.8.88-.19.38-.28.83-.28,1.34s.1.99.3,1.38c.2.39.48.69.85.9.37.21.8.32,1.3.32.44,0,.85-.08,1.21-.23s.67-.38.94-.68l1.39,1.39c-.42.49-.93.86-1.54,1.12-.61.25-1.26.38-1.97.38Z"/>
    <path class="cls-1" d="m104.13,17.21c-.98,0-1.82-.18-2.52-.54-.7-.36-1.31-.88-1.85-1.57l1.15-1.15c.4.55.85.97,1.37,1.25.52.28,1.15.42,1.91.42s1.34-.16,1.79-.49c.45-.32.67-.77.67-1.33,0-.47-.11-.85-.32-1.13s-.51-.52-.87-.71-.76-.35-1.2-.5c-.43-.15-.86-.31-1.3-.49-.43-.17-.83-.39-1.19-.65-.36-.26-.65-.6-.87-1.02-.22-.42-.33-.95-.33-1.58,0-.71.17-1.31.51-1.81.34-.5.81-.88,1.4-1.15s1.26-.4,2.01-.4c.82,0,1.55.16,2.2.48.65.32,1.18.73,1.58,1.25l-1.15,1.15c-.37-.43-.77-.76-1.2-.97-.43-.22-.92-.32-1.47-.32-.67,0-1.21.15-1.6.44-.4.29-.59.71-.59,1.23,0,.42.11.76.33,1.02.22.26.51.48.87.66.36.18.76.35,1.2.5.44.15.87.31,1.31.5.43.18.83.41,1.19.68s.65.63.87,1.07c.22.44.33.99.33,1.65,0,1.1-.38,1.97-1.14,2.59-.76.62-1.79.94-3.09.94Z"/>
    <path class="cls-1" d="m114.19,17.21c-.85,0-1.62-.19-2.3-.58-.68-.39-1.22-.92-1.62-1.59-.4-.67-.59-1.43-.59-2.29s.19-1.6.58-2.27c.39-.67.92-1.2,1.58-1.59.67-.39,1.41-.58,2.24-.58s1.49.18,2.1.54c.61.36,1.08.86,1.42,1.49s.51,1.36.51,2.16c0,.12,0,.25-.02.39-.01.14-.04.3-.07.48h-7.22v-1.35h6.35l-.59.52c0-.58-.1-1.06-.31-1.47-.2-.4-.49-.71-.86-.94s-.82-.33-1.35-.33-1.04.12-1.46.36c-.42.24-.74.58-.97,1.01-.23.43-.34.94-.34,1.53s.12,1.12.36,1.57c.24.45.58.8,1.03,1.04.44.25.95.37,1.53.37.48,0,.92-.08,1.32-.25.4-.17.75-.42,1.04-.76l1.04,1.06c-.41.48-.91.85-1.5,1.1s-1.23.38-1.9.38Z"/>
    <path class="cls-1" d="m123.51,17.21c-.78,0-1.49-.19-2.12-.58-.64-.39-1.14-.92-1.5-1.59-.37-.67-.55-1.43-.55-2.27s.18-1.6.55-2.27c.37-.67.86-1.21,1.49-1.6s1.34-.59,2.13-.59c.65,0,1.23.13,1.74.4s.92.64,1.23,1.12c.31.47.49,1.02.52,1.65v2.57c-.04.61-.21,1.16-.51,1.64-.31.48-.71.85-1.22,1.13-.51.27-1.1.4-1.75.4Zm.27-1.53c.8,0,1.45-.27,1.94-.82.49-.55.74-1.24.74-2.1,0-.59-.11-1.1-.33-1.54-.22-.44-.54-.78-.94-1.03-.41-.25-.88-.37-1.42-.37s-1.02.13-1.43.38c-.41.25-.74.6-.97,1.03-.23.44-.35.94-.35,1.5s.12,1.08.35,1.52c.23.44.56.78.98,1.04s.9.38,1.44.38Zm2.57,1.35v-2.3l.31-2.09-.31-2.07v-2.09h1.64v8.55h-1.64Z"/>
    <path class="cls-1" d="m130.35,17.03v-8.55h1.62v8.55h-1.62Zm1.62-4.88l-.61-.27c0-1.09.25-1.96.76-2.61s1.23-.97,2.18-.97c.43,0,.82.08,1.17.23.35.15.67.4.97.75l-1.06,1.1c-.18-.19-.38-.33-.59-.41-.22-.08-.47-.13-.76-.13-.6,0-1.09.19-1.48.58-.38.38-.58.97-.58,1.75Z"/>
    <path class="cls-1" d="m141.21,17.21c-.84,0-1.6-.2-2.28-.59-.68-.4-1.21-.93-1.6-1.61-.39-.68-.58-1.43-.58-2.26s.19-1.6.58-2.27c.39-.67.92-1.2,1.6-1.59.68-.39,1.44-.58,2.28-.58.66,0,1.27.12,1.84.37s1.05.6,1.46,1.07l-1.08,1.08c-.26-.31-.58-.55-.96-.71s-.79-.24-1.25-.24c-.54,0-1.02.12-1.44.37s-.75.58-.99,1.02c-.24.43-.36.93-.36,1.49s.12,1.06.36,1.49c.24.43.57.77.99,1.03s.9.38,1.44.38c.46,0,.87-.08,1.25-.24s.71-.4.98-.71l1.06,1.08c-.4.46-.88.81-1.45,1.06-.57.25-1.18.38-1.84.38Z"/>
    <path class="cls-1" d="m146.1,17.03V4.18h1.62v12.85h-1.62Zm6.05,0v-4.99c0-.65-.2-1.18-.61-1.6s-.94-.63-1.58-.63c-.43,0-.82.1-1.15.29-.34.19-.6.46-.79.79-.19.34-.29.72-.29,1.15l-.67-.38c0-.65.14-1.22.43-1.73.29-.5.69-.9,1.21-1.2.52-.29,1.1-.44,1.75-.44s1.22.14,1.72.43.89.69,1.18,1.21c.29.52.43,1.11.43,1.78v5.31h-1.62Z"/>
  </g>
  <g>
    <polygon class="cls-6" points="3.92 5.15 9.06 0 16.99 0 16.99 7.93 11.9 13.03 11.9 5.15 3.92 5.15"/>
    <polygon class="cls-4" points="3.92 7.93 9.08 7.93 9.08 15.78 13.02 15.78 16.97 11.83 16.97 20.91 3.92 20.91 3.92 7.93"/>
    <rect class="cls-5" width="20.91" height="20.91"/>
  </g>
  <path class="cls-2" d="m158.21,8.72h6.32l-1.62-2.16c-.1-.02-.2-.04-.3-.07s-.2-.06-.3-.09l-1.34,1.79-1.18-1.58-1.58,2.11Zm-.53,2.11c-.29,0-.54-.1-.74-.31-.21-.21-.31-.45-.31-.74V2.4c0-.29.1-.54.31-.74.21-.21.45-.31.74-.31h2.63v1.05h-2.63v7.37h7.37v-2.8l1.05,1.05v1.75c0,.29-.1.54-.31.74-.21.21-.45.31-.74.31h-7.37Zm8.71-4l-1.63-1.63c-.18.12-.38.21-.59.28s-.43.09-.67.09c-.65,0-1.2-.23-1.66-.69-.46-.46-.68-1.02-.68-1.68s.23-1.22.69-1.68,1.02-.69,1.68-.69,1.22.23,1.68.69.69,1.02.69,1.68c0,.24-.04.46-.11.68s-.16.42-.26.61l1.61,1.61-.74.74Zm-2.87-2.32c.37,0,.68-.13.93-.38s.38-.57.38-.93-.13-.68-.38-.93-.57-.38-.93-.38-.68.13-.93.38-.38.57-.38.93.13.68.38.93.57.38.93.38Z"/>
</svg>