<?xml version="1.0" encoding="utf-8"?>
<svg version="1.1" xmlns:xlink="http://www.w3.org/1999/xlink" width="16px" height="14px" xmlns="http://www.w3.org/2000/svg">
  <g transform="matrix(1 0 0 1 -316 -255 )">
    <path d="M 3.55555555555556 8.95052083333333  C 4.82098765432099 8.3671875  6.00617283950617 8.03298611111111  7.11111111111111 7.94791666666667  L 7.11111111111111 6.19791666666667  C 5.99382716049383 6.29513888888889  4.80864197530864 6.65060763888889  3.55555555555556 7.26432291666667  L 3.55555555555556 8.95052083333333  Z M 3.55555555555556 5.21354166666667  C 4.88271604938272 4.5390625  6.0679012345679 4.18055555555555  7.11111111111111 4.13802083333333  L 7.11111111111111 2.34244791666667  C 6.04938271604938 2.39105902777778  4.8641975308642 2.77387152777778  3.55555555555556 3.49088541666667  L 3.55555555555556 5.21354166666667  Z M 12.1018518518519 9.19661458333333  C 12.8425925925926 9.19661458333333  13.7469135802469 8.91710069444444  14.8148148148148 8.35807291666667  L 14.8148148148148 6.68098958333333  C 13.3641975308642 7.38585069444444  12.179012345679 7.6015625  11.2592592592593 7.328125  L 11.2592592592593 5.28645833333333  C 11.1358024691358 5.25  11.0154320987654 5.20442708333333  10.8981481481481 5.14973958333333  C 10.8672839506173 5.13151041666667  10.7654320987654 5.07986111111111  10.5925925925926 4.99479166666667  C 10.4197530864198 4.90972222222222  10.3132716049383 4.85807291666667  10.2731481481481 4.83984375  C 10.233024691358 4.82161458333333  10.1358024691358 4.77604166666667  9.98148148148148 4.703125  C 9.82716049382716 4.63020833333333  9.72067901234568 4.58311631944444  9.66203703703704 4.56184895833333  C 9.6033950617284 4.54058159722222  9.50308641975309 4.50108506944444  9.36111111111111 4.443359375  C 9.21913580246914 4.38563368055555  9.10802469135803 4.34765625  9.02777777777778 4.32942708333333  C 8.94753086419753 4.31119791666667  8.83950617283951 4.28537326388889  8.7037037037037 4.251953125  C 8.5679012345679 4.21853298611111  8.44598765432099 4.19574652777778  8.33796296296296 4.18359375  C 8.22993827160494 4.17144097222222  8.10802469135803 4.15928819444444  7.97222222222222 4.14713541666667  C 7.83641975308642 4.13498263888889  7.70061728395062 4.12890625  7.56481481481481 4.12890625  C 7.42283950617284 4.12890625  7.27160493827161 4.13802083333333  7.11111111111111 4.15625  L 7.11111111111111 6.1796875  L 7.28703703703704 6.1796875  C 7.91666666666667 6.1796875  8.5108024691358 6.26779513888889  9.06944444444444 6.44401041666667  C 9.62808641975309 6.62022569444444  10.2376543209877 6.86935763888889  10.8981481481481 7.19140625  C 11.0154320987654 7.24609375  11.1358024691358 7.29166666666667  11.2592592592593 7.328125  L 11.2592592592593 9.04166666666667  C 11.5185185185185 9.14496527777778  11.7993827160494 9.19661458333333  12.1018518518519 9.19661458333333  Z M 11.2592592592593 5.28645833333333  C 12.1728395061728 5.54166666666667  13.358024691358 5.26822916666667  14.8148148148148 4.46614583333333  L 14.8148148148148 2.74348958333333  C 13.7716049382716 3.29644097222222  12.8271604938272 3.57291666666667  11.9814814814815 3.57291666666667  C 11.7037037037037 3.57291666666667  11.462962962963 3.54861111111111  11.2592592592593 3.5  L 11.2592592592593 5.28645833333333  Z M 2.02314814814815 0.341796875  C 2.25462962962963 0.569661458333333  2.37037037037037 0.844618055555555  2.37037037037037 1.16666666666667  C 2.37037037037037 1.37934027777778  2.31635802469136 1.57378472222222  2.20833333333333 1.75  C 2.10030864197531 1.92621527777778  1.95679012345679 2.06597222222222  2 2.16927083333333  L 2 13.7083333333333  C 1.77777777777778 13.7934027777778  1.75 13.86328125  1.69444444444444 13.91796875  C 1.63888888888889 13.97265625  1.5679012345679 14  1.48148148148148 14  L 0.888888888888889 14  C 0.802469135802469 14  0.731481481481482 13.97265625  0.675925925925926 13.91796875  C 0.62037037037037 13.86328125  0.592592592592593 13.7934027777778  0.592592592592593 13.7083333333333  L 0.592592592592593 2.16927083333333  C 0.41358024691358 2.06597222222222  0.270061728395062 1.92621527777778  0.162037037037037 1.75  C 0.0540123456790124 1.57378472222222  0 1.37934027777778  0 1.16666666666667  C 0 0.844618055555555  0.115740740740741 0.569661458333333  0.347222222222222 0.341796875  C 0.578703703703704 0.113932291666667  0.858024691358025 0  1.18518518518519 0  C 1.51234567901235 0  1.79166666666667 0.113932291666667  2.02314814814815 0.341796875  Z M 15.712962962963 1.24869791666667  C 15.9043209876543 1.37022569444444  16 1.53732638888889  16 1.75  L 16 8.70442708333333  C 16 8.94140625  15.891975308642 9.11458333333333  15.6759259259259 9.22395833333333  C 15.6141975308642 9.25434027777778  15.5617283950617 9.28168402777778  15.5185185185185 9.30598958333333  C 14.1728395061728 10.0108506944444  13.033950617284 10.36328125  12.1018518518519 10.36328125  C 11.5586419753086 10.36328125  11.070987654321 10.2569444444444  10.6388888888889 10.0442708333333  L 10.3796296296296 9.91666666666667  C 9.98456790123457 9.71614583333333  9.67901234567901 9.5703125  9.46296296296296 9.47916666666667  C 9.24691358024691 9.38802083333333  8.96604938271605 9.29991319444444  8.62037037037037 9.21484375  C 8.27469135802469 9.12977430555555  7.92283950617284 9.08723958333333  7.56481481481481 9.08723958333333  C 6.93518518518519 9.08723958333333  6.20833333333333 9.22092013888889  5.38425925925926 9.48828125  C 4.56018518518519 9.75564236111111  3.85493827160494 10.0655381944444  3.26851851851852 10.41796875  C 3.17592592592593 10.47265625  3.07407407407407 10.5  2.96296296296296 10.5  C 2.8641975308642 10.5  2.76543209876543 10.4756944444444  2.66666666666667 10.4270833333333  C 2.46913580246914 10.3116319444444  2.37037037037037 10.1414930555556  2.37037037037037 9.91666666666667  L 2.37037037037037 3.15364583333333  C 2.37037037037037 2.94097222222222  2.46604938271605 2.77387152777778  2.65740740740741 2.65234375  C 2.87345679012346 2.52473958333333  3.11574074074074 2.39561631944444  3.38425925925926 2.26497395833333  C 3.65277777777778 2.13433159722222  4.00462962962963 1.97634548611111  4.43981481481481 1.791015625  C 4.875 1.60568576388889  5.34567901234568 1.45529513888889  5.85185185185185 1.33984375  C 6.35802469135803 1.22439236111111  6.83641975308642 1.16666666666667  7.28703703703704 1.16666666666667  C 7.9783950617284 1.16666666666667  8.62345679012346 1.26085069444444  9.22222222222222 1.44921875  C 9.82098765432099 1.63758680555555  10.4660493827161 1.89887152777778  11.1574074074074 2.23307291666667  C 11.391975308642 2.34852430555555  11.6666666666667 2.40625  11.9814814814815 2.40625  C 12.7345679012346 2.40625  13.6913580246914 2.06597222222222  14.8518518518519 1.38541666666667  C 14.9876543209877 1.3125  15.0833333333333 1.26085069444444  15.1388888888889 1.23046875  C 15.3302469135802 1.13324652777778  15.5216049382716 1.13932291666667  15.712962962963 1.24869791666667  Z " fill-rule="nonzero" fill="#fdaf2f" stroke="none" transform="matrix(1 0 0 1 316 255 )" />
  </g>
</svg>