<?xml version="1.0" encoding="utf-8"?>
<svg version="1.1" xmlns:xlink="http://www.w3.org/1999/xlink" width="103px" height="76px" xmlns="http://www.w3.org/2000/svg">
  <g transform="matrix(1 0 0 1 -39 -84 )">
    <path d="M 68.15703125 40.9417613636364  C 68.4967881944444 40.5999053030303  68.6666666666667 40.1950757575758  68.6666666666667 39.7272727272727  C 68.6666666666667 39.2234848484849  68.5057291666667 38.8096590909091  68.1838541666667 38.4857954545455  L 49.3005208333333 19.4857954545455  C 48.9786458333333 19.1619318181818  48.5673611111111 19  48.0666666666667 19  C 47.5659722222222 19  47.1546875 19.1619318181818  46.8328125 19.4857954545455  L 28.003125 38.4318181818182  C 27.6454861111111 38.8636363636364  27.4666666666667 39.2954545454545  27.4666666666667 39.7272727272727  C 27.4666666666667 40.2310606060606  27.6276041666667 40.6448863636364  27.9494791666667 40.96875  C 28.2713541666667 41.2926136363636  28.6826388888889 41.4545454545455  29.1833333333333 41  L 42 41  L 42 60.4545454545455  C 41.2 60.9223484848485  41.3698784722222 61.327178030303  41.7096354166667 61.6690340909091  C 42.0493923611111 62.0108901515151  42.4517361111111 62.1818181818182  42.9166666666667 62  L 53.2166666666667 62  C 53.6815972222222 62.1818181818182  54.0839409722222 62.0108901515151  54.4236979166667 61.6690340909091  C 54.7634548611111 61.327178030303  54.9333333333333 60.9223484848485  55 60.4545454545455  L 55 41  L 66.95 41  C 67.4149305555556 41.4545454545455  67.8172743055556 41.2836174242424  68.15703125 40.9417613636364  Z M 98.5205729166667 42.3991477272727  C 101.506857638889 46.1595643939394  103 50.4507575757576  103 55.2727272727273  C 103 60.9943181818182  100.98828125 65.8792613636364  96.96484375 69.9275568181818  C 92.94140625 73.9758522727273  88.0864583333333 76  82.4 76  L 24.0333333333333 76  C 17.4170138888889 76  11.7573784722222 73.6339962121212  7.05442708333333 68.9019886363636  C 2.35147569444444 64.169981060606  0 58.4753787878788  0 51.8181818181818  C 0 47.1401515151515  1.25173611111111 42.8219696969697  3.75520833333333 38.8636363636364  C 6.25868055555556 34.905303030303  9.62048611111111 31.936553030303  13.840625 29.9573863636364  C 13.7690972222222 28.8778409090909  13.7333333333333 28.1041666666667  13.7333333333333 27.6363636363636  C 13.7333333333333 20.0075757575758  16.415625 13.4943181818182  21.7802083333333 8.09659090909091  C 27.1447916666667 2.69886363636364  33.6180555555556 0  41.2 0  C 46.7791666666667 0  51.8844618055556 1.56534090909091  56.5158854166667 4.69602272727273  C 61.1473090277778 7.82670454545455  64.5180555555555 11.9829545454545  66.628125 17.1647727272727  C 69.1673611111111 14.9337121212121  72.1357638888889 13.8181818181818  75.5333333333333 13.8181818181818  C 79.3243055555556 13.8181818181818  82.5609375 15.1676136363636  85.2432291666667 17.8664772727273  C 87.9255208333333 20.5653409090909  89.2666666666667 23.8219696969697  89.2666666666667 27.6363636363636  C 89.2666666666667 30.3712121212121  88.5335069444445 32.8541666666667  87.0671875 35.0852272727273  C 91.7164930555556 36.2007575757576  95.5342881944444 38.6387310606061  98.5205729166667 42.3991477272727  Z " fill-rule="nonzero" fill="#7f7f7f" stroke="none" transform="matrix(1 0 0 1 39 84 )" />
  </g>
</svg>